HIERARCHY
ROOT Hips
{
  OFFSET 0.382225 96.6805 0.598322
  CHANNELS 6 Xposition Yposition Zposition Zrotation Xrotation Yrotation
  JOINT Spine
  {
    OFFSET 10.8089 -0.851416 0
    CHANNELS 3 Zrotation Xrotation Yrotation
    JOINT Spine1
    {
      OFFSET 18.8753 3.80116 0
      CHANNELS 3 Zrotation Xrotation Yrotation
      JOINT Spine2
      {
        OFFSET 13.4073 0.420477 0
        CHANNELS 3 Zrotation Xrotation Yrotation
        JOINT LeftShoulder
        {
          OFFSET 11.8837 -2.73209 -3.78198
          CHANNELS 3 Zrotation Xrotation Yrotation
          JOINT LeftArm
          {
            OFFSET 15.7849 0 -2.35849e-005
            CHANNELS 3 Zrotation Xrotation Yrotation
            JOINT LeftForeArm
            {
              OFFSET 30.3399 0 0
              CHANNELS 3 Zrotation Xrotation Yrotation
              JOINT LeftHand
              {
                OFFSET 26.9751 0 2.45913e-005
                CHANNELS 3 Zrotation Xrotation Yrotation
                End Site
                {
                  OFFSET 8 0 0
                }
              }
            }
          }
        }
        JOINT RightShoulder
        {
          OFFSET 11.8838 -2.7321 3.782
          CHANNELS 3 Zrotation Xrotation Yrotation
          JOINT RightArm
          {
            OFFSET -15.7848 0 -1.07056e-005
            CHANNELS 3 Zrotation Xrotation Yrotation
            JOINT RightForeArm
            {
              OFFSET -30.34 1.02096e-005 -2.53607e-005
              CHANNELS 3 Zrotation Xrotation Yrotation
              JOINT RightHand
              {
                OFFSET -26.9752 2.07668e-005 0
                CHANNELS 3 Zrotation Xrotation Yrotation
                End Site
                {
                  OFFSET -8 0 0
                }
              }
            }
          }
        }
        JOINT Neck
        {
          OFFSET 16.5588 -0.355318 0
          CHANNELS 3 Zrotation Xrotation Yrotation
          JOINT Head
          {
            OFFSET 9.28361 0.364157 0
            CHANNELS 3 Zrotation Xrotation Yrotation
            End Site
            {
              OFFSET 0 0 0
            }
          }
        }
      }
    }
  }
  JOINT LeftUpLeg
  {
    OFFSET -1.44883 -0.531424 -9.00581
    CHANNELS 3 Zrotation Xrotation Yrotation
    JOINT LeftLeg
    {
      OFFSET -42.572 0.0788889 -0.011964
      CHANNELS 3 Zrotation Xrotation Yrotation
      JOINT LeftFoot
      {
        OFFSET -40.1967 0 0
        CHANNELS 3 Zrotation Xrotation Yrotation
				JOINT LeftToe
        {
          OFFSET -10.4538 -16.5779 0.0801563
          CHANNELS 3 Zrotation Xrotation Yrotation
          End Site
          {
            OFFSET -1.0 -1.0 0.0
          }
        }
      }
    }
  }
  JOINT RightUpLeg
  {
    OFFSET -1.44865 -0.531427 9.0058
    CHANNELS 3 Zrotation Xrotation Yrotation
    JOINT RightLeg
    {
      OFFSET 42.5723 -3.24776e-005 0
      CHANNELS 3 Zrotation Xrotation Yrotation
      JOINT RightFoot
      {
        OFFSET 40.1968 0 -1.14003e-005
        CHANNELS 3 Zrotation Xrotation Yrotation
				JOINT RightToe
        {
          OFFSET 10.4538 16.5778 -0.0801573
          CHANNELS 3 Zrotation Xrotation Yrotation
          End Site
          {
            OFFSET -1.0 -1.0 0.0
          }
        }
      }
    }
  }
}
MOTION
Frames:	12
Frame Time:	0.0333333
83.9158 95.5289 4.91901 -71.3801 -85.3071 -161.359 -17.2303 -1.15205 3.59935 20.3043 -0.336743 -0.583883 2.7794 1.93418e-006 1.65929e-005 -1.72168 14.6463 77.4243 -13.9214 20.9982 7.56892 -1.21891 -15.0248 7.05777 -154.954 -78.8715 -155.553 -177.254 9.44896 75.7805 -17.5562 0.504435 10.2616 -1.8456 -6.58839 -0.0828109 -37.0615 -83.6191 -36.9158 -23.508 4.63459e-006 -5.90926e-006 20.5005 -12.5723 1.5247 25.0433 38.6815 -22.9068 -25.5235 -5.50014 -0.218031 5.92456 -24.8274 11.2813 -90 0 0 -152.651 10.6296 -16.0569 -39.3551 -4.05449 -2.67132 7.62165 -20.2264 7.97104 -90 0 0
83.9696 95.581 5.43651 -77.0193 -85.1745 -167.178 -16.9086 -1.03556 3.70355 20.259 -0.334087 -0.579781 2.7794 1.93418e-006 1.65929e-005 -1.73708 14.8864 77.6519 -14.4435 20.8484 7.37844 -0.885679 -15.0331 7.21875 -156.246 -79.2521 -156.818 -177.238 9.21442 75.7227 -17.8777 1.04729 10.5903 -2.06544 -6.60576 -0.0929951 -34.2828 -83.7241 -34.1565 -23.508 4.63459e-006 -5.90926e-006 19.5337 -11.9456 2.40661 24.2357 39.8919 -23.0146 -24.9762 -5.52205 -0.174145 5.96652 -25.6029 11.5311 -90 0 0 -153.194 10.1409 -16.3293 -39.6256 -4.03014 -2.7042 8.54296 -20.0038 8.26862 -90 0 0
83.747 95.4889 6.11875 -81.918 -85.5776 -172.613 -16.2575 -1.18542 4.26295 20.242 -0.330719 -0.578231 2.7794 1.93418e-006 1.65929e-005 -1.76121 14.7106 77.6924 -15.0439 20.9429 7.05576 -0.584137 -15.0399 7.36449 -157.918 -79.5907 -158.506 -177.263 9.29948 75.8136 -18.0715 1.43137 10.6692 -2.25311 -6.62046 -0.10169 -28.7015 -83.1084 -28.4566 -23.508 4.63459e-006 -5.90926e-006 17.973 -11.919 3.07182 22.9175 40.9895 -22.6987 -24.1502 -5.56031 -0.105165 6.34722 -26.7276 12.3575 -90 0 0 -154.246 11.5096 -17.2175 -38.3616 -4.11994 -2.53415 8.31009 -17.7622 5.46697 -90 0 0
83.2439 95.2284 6.84641 -88.6826 -85.8857 179.992 -15.5915 -1.22662 5.16027 20.1947 -0.327182 -0.573942 2.7794 1.93418e-006 1.65929e-005 -1.76417 14.4898 77.59 -15.4582 21.6508 6.31261 -0.569976 -15.0402 7.37137 -160.083 -80.1983 -160.448 -177.271 9.40692 75.8443 -17.9375 1.33597 10.6901 -2.3822 -6.63058 -0.10774 -23.2292 -81.9325 -22.6693 -23.508 4.63459e-006 -5.90926e-006 16.8157 -12.2021 3.30231 21.5987 41.4398 -22.3271 -23.9107 -5.57352 -0.0826659 6.92352 -27.1045 13.039 -90 0 0 -155.396 13.0932 -18.0269 -37.6601 -4.16767 -2.43545 9.92134 -18.0492 4.60759 -90 0 0
82.5356 95.0279 7.51365 -97.324 -85.7869 171.059 -15.2638 -1.03795 5.76134 20.0975 -0.324589 -0.565142 2.7794 1.93418e-006 1.65929e-005 -1.78264 14.5681 77.7468 -15.4728 21.9047 5.15143 -0.770406 -15.0358 7.27448 -157.474 -80.6652 -157.869 -177.252 9.50075 75.7708 -17.9636 1.97567 10.6286 -2.60764 -6.64822 -0.118371 -23.7605 -81.6527 -23.1743 -23.508 4.63459e-006 -5.90926e-006 16.676 -12.3808 3.49789 20.6828 41.019 -22.3567 -24.3625 -5.55416 -0.118546 7.00987 -26.4663 13 -90 0 0 -156.677 14.316 -18.1835 -37.2117 -4.19375 -2.36971 11.8184 -18.1432 4.04049 -90 0 0
81.8123 95.1441 8.01736 -103.836 -85.3395 164.906 -15.1541 -0.491641 5.48052 20.0919 -0.324256 -0.564633 2.7794 1.93418e-006 1.65929e-005 -1.83983 14.7739 78.198 -15.3657 21.8491 4.44611 -1.08775 -15.0281 7.12116 -154.81 -80.285 -154.952 -177.184 9.41403 75.512 -17.8289 2.0097 10.7078 -2.63034 -6.65001 -0.119375 -25.1827 -81.3065 -24.38 -23.508 4.63459e-006 -5.90926e-006 16.854 -12.2562 4.02084 20.6177 40.7967 -23.4022 -24.6132 -5.53977 -0.13741 5.95945 -26.0757 12.3778 -90 0 0 -158.296 15.4835 -17.7523 -35.8403 -4.32135 -2.17955 12.3562 -19.1485 4.67893 -90 0 0
81.1369 95.5861 8.39253 -103.919 -84.9944 165.555 -14.5493 0.184413 4.66983 20.2644 -0.334399 -0.580264 2.7794 1.93418e-006 1.65929e-005 -1.92212 14.8532 78.7251 -15.4284 21.5576 4.42246 -1.1477 -15.0266 7.09221 -152.222 -80.3748 -152.38 -177.129 9.33508 75.3089 -17.7002 2.55067 10.8999 -2.7784 -6.6616 -0.118234 -28.7075 -81.0881 -27.7669 -23.508 4.63459e-006 -5.90926e-006 16.3312 -11.9607 4.46405 21.5155 41.324 -25.1768 -24.0575 -5.56174 -0.0894908 3.88455 -26.7184 11.7004 -90 0 0 -159.606 17.7586 -17.2195 -33.4263 -4.53094 -1.84017 11.7624 -21.3758 5.0692 -90 0 0
80.4913 96.1486 8.71453 -101.532 -84.976 168.598 -13.5729 0.382809 3.92621 20.5569 -0.351706 -0.606718 2.7794 1.93418e-006 1.65929e-005 -1.97076 14.8123 79.0031 -15.4054 21.7628 4.82474 -0.973011 -15.031 7.17655 -153.948 -80.3677 -154.132 -177.18 9.36786 75.5008 -17.8713 2.3728 10.9277 -2.60377 -6.64792 -0.118108 -27.5799 -80.5238 -26.6591 -23.508 4.63459e-006 -5.90926e-006 15.1395 -11.3325 4.46413 22.8916 42.5386 -27.1554 -22.8805 -5.61174 0.0161885 1.35842 -28.4028 11.1853 -90 0 0 -160.749 21.3889 -16.9178 -30.2754 -4.77024 -1.4136 10.9231 -24.3181 4.80552 -90 0 0
79.8564 96.5528 8.90546 -96.9635 -85.2144 173.787 -12.5879 0.0869166 3.28292 21.0331 -0.38019 -0.649603 2.7794 1.93418e-006 1.65929e-005 -2.01211 14.8192 79.2545 -15.0881 22.2364 4.87351 -0.683179 -15.0377 7.31656 -157.452 -80.5245 -157.539 -177.323 9.52147 76.0328 -18.2634 2.13183 10.6968 -2.7108 -6.65629 -0.123199 -27.7085 -80.3745 -26.7262 -23.508 4.63459e-006 -5.90926e-006 13.89 -10.6792 4.00526 24.3861 43.3867 -28.9187 -21.7153 -5.66044 0.127587 -0.395706 -29.9476 11.0152 -90 0 0 -162.149 25.0257 -16.272 -26.6793 -5.00446 -0.972561 10.6526 -26.7936 4.43955 -90 0 0
79.1936 96.5447 8.97715 -92.5018 -85.6033 179.132 -11.827 -0.2489 2.39843 21.3043 -0.396558 -0.673923 2.7794 1.93418e-006 1.65929e-005 -2.07242 14.7048 79.5758 -14.4598 22.6051 4.36298 -0.456933 -15.0426 7.4259 -158.446 -80.8612 -158.518 -177.425 9.71023 76.4111 -18.3589 1.70542 10.1997 -3.18666 -6.69337 -0.145877 -26.1026 -80.035 -24.9874 -23.508 4.63459e-006 -5.90926e-006 13.3775 -10.3961 3.47193 25.6672 43.0603 -30.4949 -21.2747 -5.67868 0.17026 0.21748 -30.3722 11.5152 -90 0 0 -163.873 28.9452 -15.2514 -23.1878 -5.20223 -0.542772 11.6841 -29.3563 4.92229 -90 0 0
78.5963 96.001 8.90374 -88.7637 -85.9437 -175.992 -11.5691 -0.19597 1.24109 21.5027 -0.408614 -0.691663 2.7794 1.93418e-006 1.65929e-005 -2.14213 14.5392 79.9512 -14.029 22.731 3.36387 -0.0655406 -15.0499 7.61499 -158.918 -81.06 -158.97 -177.463 9.88826 76.5375 -18.3057 2.10621 9.10418 -3.52638 -6.71977 -0.162246 -26.3744 -79.5169 -25.0415 -23.508 4.63459e-006 -5.90926e-006 13.8759 -10.5371 3.10709 26.66 41.8345 -31.906 -21.7458 -5.65922 0.120686 3.68861 -29.5257 12.7244 -90 0 0 -165.622 31.3697 -13.7523 -21.0173 -5.31074 -0.25856 14.2866 -30.6885 6.52823 -90 0 0
78.0963 95.3448 8.76508 -90.4966 -86.2473 -175.882 -11.8148 0.403359 -0.885901 21.3907 -0.40181 -0.681646 2.7794 1.93418e-006 1.65929e-005 -2.3368 14.3028 81.1358 -13.4932 22.7198 1.75102 0.0856163 -15.0523 7.68813 -159.147 -80.7329 -159.238 -177.52 10.059 76.7323 -17.9988 2.68672 7.20408 -3.5992 -6.72538 -0.165787 -29.2594 -79.2341 -27.843 -23.508 4.63459e-006 -5.90926e-006 15.0102 -10.869 3.40712 27.0253 39.3127 -33.4744 -22.3741 -5.63767 0.0603134 7.44052 -27.6986 14.404 -90 0 0 -167.895 32.5053 -11.3117 -19.6379 -5.3795 -0.0679305 15.9424 -30.9784 8.08938 -90 0 0
